<svg viewBox="0 0 24 24" fill="#44739e" xmlns="http://www.w3.org/2000/svg"><title>hue:apple-homepod-mini</title><desc>Source: https://github.com/arallsopp/hass-hue-icons</desc><path d="M18.97,3.19C18.97,3.19,18.97,3.19,18.97,3.19c-0.06-0.07-0.14-0.14-0.24-0.21c-0.01-0.01-0.01-0.01-0.02-0.02l-0.01,0 c-0.23-0.15-0.56-0.29-0.97-0.41c-0.01,0-0.02,0-0.02-0.01c-0.4-0.12-0.87-0.22-1.41-0.3c-0.03-0.01-0.07-0.01-0.1-0.02 c-0.26-0.04-0.54-0.08-0.83-0.11c-0.01,0-0.02,0-0.04,0c-0.27-0.03-0.55-0.05-0.84-0.07c-0.06,0-0.12-0.01-0.18-0.01 c-0.3-0.02-0.6-0.03-0.92-0.05c-0.05,0-0.11,0-0.16,0c-0.28-0.01-0.56-0.01-0.85-0.01c-0.05,0-0.09,0-0.13,0c-0.06,0-0.13,0-0.19,0 c-0.4,0-0.78,0.01-1.16,0.02c-0.05,0-0.1,0-0.15,0c-0.36,0.01-0.71,0.03-1.04,0.05c-0.05,0-0.1,0.01-0.15,0.01 C9.24,2.08,8.92,2.1,8.61,2.13c-0.03,0-0.07,0.01-0.1,0.01C7.52,2.25,6.7,2.4,6.12,2.61c-0.01,0-0.02,0.01-0.03,0.01 C5.9,2.69,5.78,2.78,5.65,2.86c-0.01,0,0.01,0,0,0C5.5,2.97,5.4,3.03,5.28,3.14C2.93,5.08,1.42,8,1.42,11.28 c0,4.19,2.45,7.8,5.99,9.53c0.11,0.17,0.25,0.32,0.45,0.45c0.16,0.1,0.34,0.19,0.56,0.26c0.24,0.08,0.47,0.14,0.69,0.19 c0.04,0.01,0.08,0.02,0.11,0.03c0.21,0.04,0.42,0.07,0.64,0.1c0.04,0,0.09,0.01,0.13,0.01c0.22,0.02,0.44,0.03,0.67,0.04 c0.03,0,0.06,0,0.09,0c0.24,0.01,0.49,0.01,0.76,0.01c0.02,0,0.03,0,0.05,0c0.03,0,0.06,0,0.09,0c0.19,0,0.4,0,0.61,0 c1.38,0,2.23-0.05,3.34-0.32c0.88-0.22,1.27-0.53,1.43-0.89c3.41-1.77,5.74-5.31,5.74-9.4C22.77,8.03,21.29,5.14,18.97,3.19z M12.08,4.03c-2.51,0-4.3-0.3-5.26-0.59c0.86-0.22,2.49-0.45,5.27-0.46l0.19,0c2.47,0,4.13,0.25,5.07,0.5 C16.33,3.75,14.55,4.03,12.08,4.03z"/></svg>
