<svg viewBox="0 0 24 24" fill="#44739e" xmlns="http://www.w3.org/2000/svg"><title>cil:apple-homepod</title><desc>Source: https://github.com/arallsopp/hass-hue-icons</desc><path d="M17.12,1.98c-1.37-0.42-3.05-0.64-5.04-0.64c-1.81,0-3.38,0.18-4.69,0.51c1.42,0.35,3.17,0.57,5.15,0.57 C14.26,2.42,15.81,2.25,17.12,1.98z M18.68,2.61c-1.79,0.53-3.99,0.81-6.14,0.81c-2.4,0-4.88-0.35-6.76-1.01C3.9,3.26,2.89,4.59,2.89,6.32v11.52 c0,1.85,1.13,3.2,3.26,4c0.66,1.18,4.57,1.28,5.85,1.28c1.29,0,5.26-0.1,5.87-1.31c2.12-0.8,3.24-2.14,3.24-3.97V6.32 C21.11,4.72,20.26,3.46,18.68,2.61z"/></svg>
