<svg viewBox="0 0 24 24" height="24px" width="24px" fill="#44739e" xmlns="http://www.w3.org/2000/svg"><title>cooker-hood-curve</title><desc>Source: https://github.com/arallsopp/hass-hue-icons</desc><path d="M22.88,14.03c-0.17-0.08-3.25-1.51-7.14-2.17V2.96c0-0.28-0.22-0.5-0.5-0.5H8.76c-0.28,0-0.5,0.22-0.5,0.5v8.94 c-3.88,0.66-6.99,2.01-7.13,2.07c-0.25,0.11-0.37,0.41-0.26,0.66c0.11,0.25,0.41,0.37,0.66,0.26c0.02-0.01,0.94-0.41,2.39-0.88 l0.11,0.27c0.08,0.19,0.26,0.31,0.46,0.31h14.85c0.17,0,0.33-0.09,0.42-0.23L20,13.98c1.48,0.5,2.43,0.94,2.45,0.95 c0.07,0.03,0.14,0.05,0.21,0.05c0.19,0,0.37-0.11,0.45-0.29C23.24,14.45,23.13,14.15,22.88,14.03z M12.14,11.54 c-0.91,0-1.88,0.08-2.88,0.21v-0.93h5.48v0.89C13.9,11.61,13.02,11.54,12.14,11.54z M14.74,3.46v6.37H9.26V3.46H14.74z M5.29,13.6 c1.05-0.3,2.26-0.58,3.54-0.78c1.16-0.18,2.28-0.27,3.31-0.27c2.4,0,4.77,0.51,6.63,1.05H5.29z M15.31,16.82c0.21-0.17,0.25-0.48,0.09-0.7c-0.17-0.22-0.48-0.26-0.7-0.09c-0.52,0.4-1.22,1.58-0.1,3.18 c0.32,0.46,0.46,0.86,0.4,1.13c-0.05,0.2-0.21,0.29-0.2,0.29c-0.25,0.12-0.36,0.42-0.24,0.67c0.08,0.18,0.26,0.29,0.45,0.29 c0.07,0,0.15-0.02,0.21-0.05c0.06-0.03,0.57-0.29,0.74-0.93c0.15-0.58-0.03-1.24-0.54-1.97C14.61,17.49,15.18,16.92,15.31,16.82z M12.31,16.82c0.21-0.17,0.25-0.48,0.09-0.7c-0.17-0.22-0.48-0.26-0.7-0.09c-0.52,0.4-1.22,1.58-0.11,3.18 c0.32,0.46,0.46,0.86,0.4,1.13c-0.05,0.2-0.21,0.29-0.2,0.29c-0.25,0.12-0.36,0.42-0.24,0.67c0.09,0.18,0.27,0.29,0.45,0.29 c0.07,0,0.15-0.02,0.21-0.05c0.06-0.03,0.57-0.29,0.74-0.93c0.15-0.58-0.03-1.24-0.54-1.97C11.61,17.49,12.18,16.92,12.31,16.82z M9.31,16.82c0.21-0.17,0.25-0.48,0.09-0.7s-0.48-0.26-0.7-0.09c-0.52,0.4-1.22,1.58-0.11,3.18 c0.32,0.46,0.46,0.86,0.4,1.13c-0.05,0.2-0.21,0.29-0.2,0.29c-0.25,0.12-0.36,0.42-0.24,0.67c0.09,0.18,0.27,0.29,0.45,0.29 c0.07,0,0.15-0.02,0.21-0.05c0.06-0.03,0.57-0.29,0.74-0.93c0.15-0.58-0.03-1.24-0.54-1.97C8.61,17.49,9.18,16.92,9.31,16.82z"/></svg>