<svg viewBox="0 0 24 24" fill="#44739e" xmlns="http://www.w3.org/2000/svg"><title>cooker-hood-trapezoid</title><desc>Source: https://github.com/arallsopp/hass-hue-icons</desc><path d="M15.31,16.82c0.21-0.17,0.25-0.48,0.09-0.7c-0.17-0.22-0.48-0.26-0.7-0.09c-0.52,0.4-1.22,1.58-0.1,3.18 c0.32,0.46,0.46,0.86,0.4,1.13c-0.05,0.2-0.21,0.29-0.2,0.29c-0.25,0.12-0.36,0.42-0.24,0.67c0.08,0.18,0.26,0.29,0.45,0.29 c0.07,0,0.15-0.02,0.21-0.05c0.06-0.03,0.57-0.29,0.74-0.93c0.15-0.58-0.03-1.24-0.54-1.97C14.61,17.49,15.18,16.92,15.31,16.82z M12.31,16.82c0.21-0.17,0.25-0.48,0.09-0.7c-0.17-0.22-0.48-0.26-0.7-0.09c-0.52,0.4-1.22,1.58-0.11,3.18 c0.32,0.46,0.46,0.86,0.4,1.13c-0.05,0.2-0.21,0.29-0.2,0.29c-0.25,0.12-0.36,0.42-0.24,0.67c0.09,0.18,0.27,0.29,0.45,0.29 c0.07,0,0.15-0.02,0.21-0.05c0.06-0.03,0.57-0.29,0.74-0.93c0.15-0.58-0.03-1.24-0.54-1.97C11.61,17.49,12.18,16.92,12.31,16.82z M9.31,16.82c0.21-0.17,0.25-0.48,0.09-0.7c-0.16-0.22-0.48-0.26-0.7-0.09c-0.52,0.4-1.22,1.58-0.11,3.18 c0.32,0.46,0.46,0.86,0.4,1.13c-0.05,0.2-0.21,0.29-0.2,0.29c-0.25,0.12-0.36,0.42-0.24,0.67c0.09,0.18,0.27,0.29,0.45,0.29 c0.07,0,0.15-0.02,0.21-0.05c0.06-0.03,0.57-0.29,0.74-0.93c0.15-0.58-0.03-1.24-0.54-1.97C8.61,17.49,9.18,16.92,9.31,16.82z M22.67,11.23h-1.51l-5.42-3.04V2.96c0-0.28-0.22-0.5-0.5-0.5H8.76c-0.28,0-0.5,0.22-0.5,0.5v5.22l-5.51,3.05H1.22 c-0.28,0-0.5,0.22-0.5,0.5v2.83c0,0.28,0.22,0.5,0.5,0.5h21.45c0.28,0,0.5-0.22,0.5-0.5v-2.83C23.17,11.46,22.94,11.23,22.67,11.23z M9.26,3.46h5.48V7.9H9.26V3.46z M9.03,8.9h5.92l4.16,2.33H4.81L9.03,8.9z M22.17,14.06H1.72v-1.83h20.45V14.06z M8.81,12.7c-0.26,0-0.48,0.21-0.48,0.48s0.21,0.48,0.48,0.48s0.48-0.21,0.48-0.48S9.07,12.7,8.81,12.7 L8.81,12.7z M11.94,12.7c-0.26,0-0.48,0.21-0.48,0.48s0.21,0.48,0.48,0.48s0.48-0.21,0.48-0.48S12.2,12.7,11.94,12.7L11.94,12.7z M14.92,12.7c-0.26,0-0.48,0.21-0.48,0.48s0.21,0.48,0.48,0.48s0.48-0.21,0.48-0.48S15.18,12.7,14.92,12.7z M14.92,12.7 c-0.26,0-0.48,0.21-0.48,0.48s0.21,0.48,0.48,0.48s0.48-0.21,0.48-0.48S15.18,12.7,14.92,12.7L14.92,12.7z"/></svg>