<svg xmlns="http://www.w3.org/2000/svg" id="cil-cooker-hood-alt" viewBox="0 0 24 24" fill="#44739e"><path d="M0.57,11.59h22.86v3.02H0.57V11.59z M15.07,3.16h-0.36V1.83H9.14v1.33H8.76L0.57,6.78V9.6h22.86V6.77L15.07,3.16z
	 M8.63,17.41l-1.34-1.2l-2.45,2.74l1.63,1.63l-1.05,1.05l0.64,0.64l0,0l0,0l0.64,0.64l2.33-2.33l-1.7-1.7L8.63,17.41z M18.63,17.41
	l-1.34-1.2l-2.45,2.74l1.63,1.63l-1.05,1.05l0.64,0.64l0,0l0,0l0.64,0.64l2.33-2.33l-1.7-1.7L18.63,17.41z M13.63,17.41l-1.34-1.2
	l-2.45,2.74l1.63,1.63l-1.05,1.05l0.64,0.64l0,0l0,0l0.64,0.64l2.33-2.33l-1.7-1.7L13.63,17.41z"/></svg>
