<?xml version="1.0" encoding="UTF-8"?><!DOCTYPE svg PUBLIC "-//W3C//DTD SVG 1.1//EN" "http://www.w3.org/Graphics/SVG/1.1/DTD/svg11.dtd"><svg viewBox="0 0 24 24" fill="#44739e" xmlns="http://www.w3.org/2000/svg"><path d= "M22.5 10.7h-1c-2.3 0-3.5-2.8-1.9-4.5l.7-.7c.5-.5.5-1.4-.1-1.9-.5-.5-1.3-.5-1.8 0l-.7.7c-1.7 1.7-4.5.5-4.5-1.9v-1c0-.7-.6-1.3-1.3-1.3s-1.3.6-1.3 1.3v1c0 2.3-2.8 3.5-4.5 1.9l-.6-.7c-.5-.4-1.4-.4-1.9.1-.4.5-.4 1.3 0 1.8l.7.7c1.7 1.7.5 4.5-1.9 4.5h-1c-.7 0-1.3.6-1.3 1.3s.6 1.3 1.3 1.3h1c2.3 0 3.5 2.8 1.9 4.5l-.7.7c-.5.5-.5 1.4.1 1.9.5.5 1.3.5 1.8 0l.7-.7c1.7-1.7 4.5-.5 4.5 1.9v1c0 .7.6 1.3 1.3 1.3s1.3-.6 1.3-1.3v-1c0-2.3 2.8-3.5 4.5-1.9l.7.7c.5.5 1.4.5 1.9-.1.5-.5.5-1.3 0-1.8l-.7-.7c-1.7-1.7-.5-4.5 1.9-4.5h1c.7 0 1.3-.6 1.3-1.3s-.6-1.3-1.4-1.3h0zm-12 2a2.22 2.22 0 0 1-2.2-2.2 2.22 2.22 0 0 1 2.2-2.2 2.22 2.22 0 0 1 2.2 2.2 2.22 2.22 0 0 1-2.2 2.2zm3.7 2.6a1.11 1.11 0 0 1-1.1-1.1 1.11 1.11 0 0 1 1.1-1.1 1.11 1.11 0 0 1 1.1 1.1 1.11 1.11 0 0 1-1.1 1.1z"/></svg>

