<?xml version="1.0" encoding="UTF-8"?><!DOCTYPE svg PUBLIC "-//W3C//DTD SVG 1.1//EN" "http://www.w3.org/Graphics/SVG/1.1/DTD/svg11.dtd"><svg height="24" viewBox="0 0 24 24" width="24" fill="#44739e" xmlns="http://www.w3.org/2000/svg"><path d="m18.080545,6.3920614 2.944882,-0.5724262 0.381617,1.9632536 -2.944881,0.572426 -0.381618,-1.9632534m-1.108732,4.4380246 0.572427,2.944882 -1.963254,0.381617 -0.572426,-2.94488 1.963253,-0.381619m1.541572,-1.91574 2.487113,1.67758L19.882112,12.25 17.395,10.572421 18.513385,8.914346M8.85,2 7.18,4.5 8.32,5.25 5.14,10C5.1,10 5.05,10 5,10a2,2 0 0 0 -2,2c0,0.94 0.66,1.75 1.58,1.95L8.62,20H5v2H15V20H11L6.53,13.28C6.83,12.92 7,12.47 7,12 7,11.7 6.93,11.4 6.8,11.13L10,6.37C9.78,8.05 10.75,9.89 12.45,11L16.89,4.37C15.2,3.24 13.12,3.04 11.65,3.87L8.85,2m7.48,5 -1.66,2.5C15.35,9.95 16.29,9.77 16.75,9.08 17.21,8.39 17,7.46 16.33,7Z"/></svg>
