<?xml version="1.0" encoding="UTF-8"?><!DOCTYPE svg PUBLIC "-//W3C//DTD SVG 1.1//EN" "http://www.w3.org/Graphics/SVG/1.1/DTD/svg11.dtd"><svg viewBox="0 0 24 24" fill="#44739e" xmlns="http://www.w3.org/2000/svg"><path d= "M6 22H3v-2h3v2zm0-5H3v2h3v-2zm0-3H3v2h3v-2zm0-3H3v2h3v-2zm0-3H3v2h3V8zm5 12H8v2h3v-2zm5 0h-3v2h3v-2zm0-3h-3v2h3v-2zm0-3h-3v2h3v-2zm0-3h-3v2h3v-2zm0-3h-3v2h3V8zm0-3h-3v2h3V5zm0-3h-3v2h3V2zm5 18h-3v2h3v-2zm0-3h-3v2h3v-2zm0-3h-3v2h3v-2zm0-3h-3v2h3v-2zm0-3h-3v2h3V8zm-10 9H8v2h3v-2zm0-3H8v2h3v-2zm0-3H8v2h3v-2z"/></svg>

