<?xml version="1.0" encoding="utf-8"?>
<!-- Generator: Adobe Illustrator 26.3.1, SVG Export Plug-In . SVG Version: 6.00 Build 0)  -->
<svg version="1.1" id="mdi-google-home" xmlns="http://www.w3.org/2000/svg" x="0px"
	 y="0px" viewBox="0 0 24 24" style="enable-background:new 0 0 24 24;" xml:space="preserve">
<style type="text/css">
	.st0{fill:#44739E;}
</style>
<path class="st0" d="M22.1,3.4l-1.5-1.5l-3,3l-0.2-2.3c0-0.2,0-0.3-0.1-0.4c-0.2-0.5-0.6-0.7-1.3-0.8c-0.7-0.1-1.5,0-2.4,0.2
	c-0.9,0.2-1.8,0.5-2.7,0.9C9.5,3.1,8.3,3.8,7.4,4.6L7,4.9C6.8,5.1,6.6,5.3,6.4,5.6C6.2,5.9,6.1,6.2,6.1,6.5L5.4,16.9
	c0,0.1,0,0.1,0,0.2l-3.5,3.5l1.5,1.5L6,19.5c0.3,0.6,0.7,1.1,1.2,1.5c1.2,1,2.8,1.5,4.8,1.5c2,0,3.6-0.5,4.8-1.5
	c1.2-1,1.8-2.3,1.8-4.1l-0.8-9.4L22.1,3.4z M8,5.3C8.7,4.7,9.8,4,11.2,3.4c1.7-0.7,3.1-1.1,4.2-1.1c0.6,0,0.9,0.1,0.9,0.2
	c0.1,0.1,0,0.3-0.3,0.6c-0.2,0.3-0.7,0.7-1.4,1.2c-0.7,0.5-1.5,0.9-2.4,1.3c-1.4,0.6-2.6,0.9-3.7,1c-0.9,0.1-1.4,0-1.5-0.2
	C7,6.3,7.3,5.9,8,5.3z M6.7,13.7l0.4-6.1c0.1,0.1,0.4,0.1,1,0.1h0.7c1.1-0.1,2.4-0.5,3.9-1.1c1.7-0.8,3-1.6,3.9-2.4l0.1,1.6
	l-8.5,8.5C7.6,14.2,7.1,14,6.7,13.7z M17.3,13.6c-1.7,0.6-3.4,0.9-5,1c-0.6,0-1.1,0-1.6,0l6.2-6.2L17.3,13.6z"/>
</svg>
