<svg viewBox="0 0 24 24" fill="#44739e" xmlns="http://www.w3.org/2000/svg"><title>google-home-off</title><path class="st0" d="M21.97,20.95L2.88,1.86L1.5,3.24L6,7.75l-0.61,9.17C5.39,18.64,6,20,7.2,21c1.2,1.04,2.8,1.55,4.8,1.55 c2.03,0,3.64-0.5,4.83-1.48c0.47-0.39,0.84-0.86,1.12-1.37l2.64,2.64L21.97,20.95z M12.38,14.67c-1.6,0.1-2.82,0.04-3.66-0.17 c-0.84-0.2-1.53-0.45-2.06-0.77L7,8.75l5.87,5.87C12.71,14.64,12.54,14.66,12.38,14.67z M7.97,5.34c0.75-0.65,1.84-1.29,3.28-1.92c1.69-0.72,3.09-1.08,4.22-1.08c0.56,0,0.87,0.08,0.94,0.24 c0.06,0.12-0.03,0.34-0.28,0.65c-0.25,0.32-0.72,0.71-1.41,1.18c-0.69,0.47-1.5,0.9-2.44,1.31c-1.11,0.48-2.13,0.79-3.06,0.94 l0.87,0.87c0.78-0.19,1.63-0.48,2.57-0.87c1.72-0.75,3.01-1.57,3.89-2.44l0.79,9.42c-0.29,0.1-0.58,0.18-0.87,0.27l2.05,2.05 L17.44,2.63c0-0.16-0.03-0.3-0.1-0.43C17.16,1.73,16.71,1.46,16,1.38c-0.7-0.08-1.5-0.01-2.38,0.19c-0.89,0.2-1.81,0.51-2.74,0.93 C9.5,3.08,8.33,3.78,7.36,4.59l-0.11,0.1l0.69,0.69C7.95,5.36,7.96,5.35,7.97,5.34z"/></svg>
