<svg viewBox="0 0 24 24" fill="#44739e" xmlns="http://www.w3.org/2000/svg"><title>google-home-alt</title><path d="M15.94,7.78h-0.66c-1.09-0.09-2.41-0.47-3.94-1.12C9.62,5.91,8.33,5.09,7.45,4.22l-0.79,9.42 c1.71,0.59,3.37,0.94,4.96,1.03c1.6,0.1,2.82,0.04,3.66-0.17c0.84-0.2,1.53-0.45,2.06-0.77l-0.42-6.09 C16.83,7.73,16.5,7.78,15.94,7.78 M16.03,5.34c-0.75-0.65-1.84-1.29-3.28-1.92C11.06,2.7,9.66,2.34,8.53,2.34 c-0.56,0-0.87,0.08-0.94,0.24C7.53,2.7,7.62,2.92,7.87,3.23c0.25,0.32,0.72,0.71,1.41,1.18c0.69,0.47,1.5,0.9,2.44,1.31 c1.37,0.59,2.61,0.94,3.7,1.03c0.88,0.09,1.36,0.03,1.45-0.19C17,6.34,16.72,5.94,16.03,5.34 M8,1.38c0.7-0.08,1.5-0.01,2.38,0.19 c0.89,0.2,1.81,0.51,2.74,0.93c1.38,0.58,2.55,1.28,3.52,2.09l0.33,0.29c0.19,0.18,0.39,0.43,0.61,0.75 c0.22,0.31,0.33,0.59,0.33,0.84l0.7,10.45C18.61,18.64,18,20,16.8,21c-1.2,1.04-2.8,1.55-4.8,1.55c-2.03,0-3.64-0.5-4.83-1.48 C6,20.09,5.39,18.73,5.39,17L6.56,2.63c0-0.16,0.03-0.3,0.1-0.43C6.84,1.73,7.29,1.46,8,1.38z"/></svg>
