<?xml version="1.0" encoding="utf-8"?>
<!-- Generator: Adobe Illustrator 26.3.1, SVG Export Plug-In . SVG Version: 6.00 Build 0)  -->
<svg version="1.1" id="mdi-google-home" xmlns="http://www.w3.org/2000/svg" xmlns:xlink="http://www.w3.org/1999/xlink" x="0px"
	 y="0px" viewBox="0 0 24 24" style="enable-background:new 0 0 24 24;" xml:space="preserve">
<style type="text/css">
	.st0{fill:#44739E;}
</style>
<path class="st0" d="M22.1,20.6L20.6,22L2,3.4l1.5-1.5L22.1,20.6z M8.2,5.2c0.7-0.6,1.7-1.2,3-1.8c1.7-0.7,3.1-1.1,4.2-1.1
	c0.6,0,0.9,0.1,0.9,0.2c0.1,0.1,0,0.3-0.3,0.6c-0.2,0.3-0.7,0.7-1.4,1.2c-0.7,0.5-1.5,0.9-2.4,1.3c-1,0.4-1.9,0.7-2.7,0.9l1,1
	c0.7-0.2,1.4-0.5,2.2-0.8c1.7-0.8,3-1.6,3.9-2.4l0.7,9.4c-0.2,0.1-0.3,0.1-0.5,0.2l1.7,1.7L17.4,2.6c0-0.2,0-0.3-0.1-0.4
	c-0.2-0.5-0.6-0.7-1.3-0.8c-0.7-0.1-1.5,0-2.4,0.2c-0.9,0.2-1.8,0.5-2.7,0.9c-1.3,0.6-2.5,1.2-3.4,2L8.2,5.2z M11.8,14.7
	c-1.3,0-2.3,0-3.1-0.2c-0.8-0.2-1.5-0.5-2.1-0.8l0.3-3.9l-1-1l-0.5,8C5.4,18.6,6,20,7.2,21s2.8,1.5,4.8,1.5s3.6-0.5,4.8-1.5
	c0.2-0.2,0.4-0.4,0.6-0.6L11.8,14.7z"/>
</svg>
