<?xml version="1.0" encoding="utf-8"?>
<!-- Generator: Adobe Illustrator 26.3.1, SVG Export Plug-In . SVG Version: 6.00 Build 0)  -->
<svg version="1.1" id="mdi-google-home" xmlns="http://www.w3.org/2000/svg" xmlns:xlink="http://www.w3.org/1999/xlink" x="0px"
	 y="0px" viewBox="0 0 24 24" style="enable-background:new 0 0 24 24;" xml:space="preserve">
<style type="text/css">
	.st0{fill:#44739E;}
</style>
<path class="st0" d="M22.1,20.6l-3.5-3.5c0,0,0-0.1,0-0.1L17.4,2.6c0-0.2,0-0.3-0.1-0.4c-0.2-0.5-0.6-0.7-1.3-0.8
	c-0.7-0.1-1.5,0-2.4,0.2c-0.9,0.2-1.8,0.5-2.7,0.9C9.5,3.1,8.3,3.8,7.4,4.6L7,4.9C6.9,5,6.8,5.1,6.7,5.2L3.4,1.9L1.9,3.4L6,7.5
	l-0.6,9.4C5.4,18.6,6,20,7.2,21c1.2,1,2.8,1.5,4.8,1.5c2,0,3.6-0.5,4.8-1.5c0.5-0.4,0.9-1,1.2-1.6l2.6,2.6L22.1,20.6z M17.3,13.6
	c-0.6,0.2-1.2,0.4-1.7,0.5L9.2,7.7c1-0.1,2.2-0.5,3.5-1.1c1.7-0.8,3-1.6,3.9-2.4L17.3,13.6z M8,5.3C8.7,4.7,9.8,4,11.2,3.4
	c1.7-0.7,3.1-1.1,4.2-1.1c0.6,0,0.9,0.1,0.9,0.2c0.1,0.1,0,0.3-0.3,0.6c-0.2,0.3-0.7,0.7-1.4,1.2c-0.7,0.5-1.5,0.9-2.4,1.3
	c-1.4,0.6-2.6,0.9-3.7,1c-0.1,0-0.2,0-0.3,0L7.4,5.9C7.5,5.8,7.7,5.6,8,5.3z M12.4,14.7c-1.6,0.1-2.8,0-3.7-0.2
	c-0.8-0.2-1.5-0.5-2.1-0.8L7,8.5l6.1,6.1C12.9,14.6,12.6,14.7,12.4,14.7z"/>
</svg>
