<svg viewBox="0 0 24 24" fill="#44739e" xmlns="http://www.w3.org/2000/svg"><title>google-home-alt-off</title><path class="st0" d="M21.97,20.95L2.88,1.86L1.5,3.24l4.64,4.64L5.39,17c0,1.73,0.61,3.09,1.78,4.07c1.19,0.98,2.8,1.48,4.83,1.48 c2,0,3.6-0.51,4.8-1.55c0.47-0.39,0.83-0.84,1.12-1.34l2.67,2.67L21.97,20.95z M11.62,14.67c-1.59-0.09-3.25-0.44-4.96-1.03 l0.4-4.83l5.9,5.9C12.55,14.71,12.11,14.7,11.62,14.67z M7.45,4.22c0.88,0.87,2.17,1.69,3.89,2.44c1.53,0.65,2.85,1.03,3.94,1.12h0.66c0.56,0,0.89-0.05,0.98-0.14 l0.42,6.09c-0.21,0.13-0.45,0.24-0.71,0.34l1.91,1.91l-0.64-9.52c0-0.25-0.11-0.53-0.33-0.84c-0.22-0.32-0.42-0.57-0.61-0.75 l-0.33-0.29c-0.97-0.81-2.14-1.51-3.52-2.09c-0.93-0.42-1.85-0.73-2.74-0.93C9.5,1.37,8.7,1.3,8,1.38C7.29,1.46,6.84,1.73,6.66,2.2 c-0.07,0.13-0.1,0.27-0.1,0.43L6.46,3.9L7.4,4.84L7.45,4.22z M7.59,2.58c0.07-0.16,0.38-0.24,0.94-0.24c1.13,0,2.53,0.36,4.22,1.08 c1.44,0.63,2.53,1.27,3.28,1.92c0.69,0.6,0.97,1,0.84,1.22c-0.09,0.22-0.57,0.28-1.45,0.19c-1.09-0.09-2.33-0.44-3.7-1.03 c-0.94-0.41-1.75-0.84-2.44-1.31C8.59,3.94,8.12,3.55,7.87,3.23C7.62,2.92,7.53,2.7,7.59,2.58z"/></svg>
