<?xml version="1.0" encoding="UTF-8" standalone="no"?>
<!DOCTYPE svg PUBLIC "-//W3C//DTD SVG 1.1//EN" "http://www.w3.org/Graphics/SVG/1.1/DTD/svg11.dtd">
<svg
  xmlns="http://www.w3.org/2000/svg"
  xmlns:xlink="http://www.w3.org/1999/xlink"
  version="1.1" height="24" width="24" viewBox="0 0 24 24" fill="#44739e">
  <path id="path2" d="M 12 3 L 2 12 L 5 12 L 5 20 L 19 20 L 19 12 L 22 12 L 12 3 z M 12 8 A 1 1 0 0 1 13 9 L 13 14.269531 A 2 2 0 0 1 14 16 A 2 2 0 0 1 12 18 A 2 2 0 0 1 10 16 A 2 2 0 0 1 11 14.271484 L 11 9 A 1 1 0 0 1 12 8 z " />
</svg>
