<?xml version="1.0" encoding="utf-8"?>
<!-- Generator: Adobe Illustrator 26.3.1, SVG Export Plug-In . SVG Version: 6.00 Build 0)  -->
<svg version="1.1" id="Layer_1" xmlns="http://www.w3.org/2000/svg" x="0px" y="0px"
	 viewBox="0 0 24 24" style="enable-background:new 0 0 24 24;" xml:space="preserve" fill="#44739e">
<path d="M16.6,20.5H4.9v-8h-3l10-9l5.4,4.8c-1.5,1.9-3.8,5.3-3.8,7.6C13.4,18,14.7,19.8,16.6,20.5z M22.1,15.9c0,2-1.6,3.6-3.6,3.6
	c-2,0-3.6-1.6-3.6-3.6c0-2.4,3.6-6.4,3.6-6.4S22.1,13.6,22.1,15.9z M16.4,14.3c0,0.4,0.3,0.7,0.7,0.7c0.4,0,0.7-0.3,0.7-0.7
	c0-0.4-0.3-0.7-0.7-0.7C16.8,13.6,16.4,13.9,16.4,14.3z M20.6,17c0-0.4-0.3-0.7-0.7-0.7s-0.7,0.3-0.7,0.7s0.3,0.7,0.7,0.7
	S20.6,17.4,20.6,17z M20.6,14.2L20,13.5l-3.6,3.6l0.6,0.6L20.6,14.2z"/>
</svg>
