<?xml version="1.0" encoding="UTF-8"?><!DOCTYPE svg PUBLIC "-//W3C//DTD SVG 1.1//EN" "http://www.w3.org/Graphics/SVG/1.1/DTD/svg11.dtd"><svg viewBox="0 0 24 24" fill="#44739e" xmlns="http://www.w3.org/2000/svg"><path d= "M13.4 22.9c0 .4-.2.4-.3.4h-2.3c-.1 0-.3-.1-.3-.4s.3-.4.3-.4h2.3c0 0 .3 0 .3.4zm1.2-3.2H9.3s-.4 0-.4.4.3.4.4.4h5.4c.1 0 .4 0 .4-.4-.1-.4-.5-.4-.5-.4zm0 1.4H9.3s-.4 0-.4.4.3.4.4.4h5.4c.1 0 .4 0 .4-.4-.1-.4-.5-.4-.5-.4zm0-2.7H9.3s-.4 0-.4.4.3.4.4.4h5.4c.1 0 .4 0 .4-.4s-.5-.4-.5-.4zM18.5 3C18.4.9 14.5.6 12.8.6h-1.6C9.5.7 5.5.9 5.5 3c0 .2 0 1.2 1 3.9 0 .1.1.4.3.5v.3c.2.4 1.6 3.4 1.5 8.9v.8s0 .3.5.3H15c.5 0 .5-.2.5-.3v-.8c0-5.5 1.3-8.5 1.5-8.9v-.3c.2-.2.3-.4.4-.5 1.2-2.7 1.1-3.6 1.1-3.9z"/></svg>

