<svg viewBox="0 0 24 24" height="24px" width="24px" fill="#44739e" xmlns="http://www.w3.org/2000/svg"><title>ikea-death-star</title><desc>Source: https://github.com/arallsopp/hass-hue-icons/issues/135</desc><path d="M20.45,19.69c1.86-2.03,3-4.73,3-7.69c0-0.81-0.09-1.59-0.25-2.35c0-0.01-0.01-0.03-0.01-0.04C22.09,4.45,17.5,0.57,12,0.57C5.68,0.57,0.54,5.7,0.54,12S5.68,23.43,12,23.43c3.27,0,6.22-1.38,8.31-3.58C20.37,19.81,20.42,19.76,20.45,19.69z M1.77,14.17c0.04,0.01,0.07,0.02,0.11,0.02c0.03,0,0.06,0,0.09-0.01c0.27-0.05,0.45-0.31,0.4-0.58c0-0.01-0.19-1.03-0.19-1.75c0-0.48,0.08-1.05,0.14-1.38l0.18-0.07C2.45,10.93,2.4,11.46,2.4,12c0,0.28,0.02,0.56,0.04,0.84c0,0.03-0.01,0.05,0,0.08c0,0.01,0.01,0.01,0.01,0.02c0.07,1,0.26,1.96,0.54,2.87l-0.45,0.12c-0.07,0.02-0.13,0.05-0.18,0.1C2.1,15.43,1.91,14.81,1.77,14.17z M21.23,7.11c0.34,0.64,0.61,1.32,0.82,2.03c-0.11,0.01-0.22,0.05-0.3,0.14c-0.12,0.12-0.16,0.3-0.12,0.46c0,0,0.09,0.38,0.18,1.24c0.04,0.37,0.04,0.68,0.04,0.91l-0.26-0.02c-0.01-0.9-0.11-1.76-0.29-2.6c0-0.05-0.01-0.09-0.03-0.13c-0.18-0.79-0.42-1.54-0.73-2.25l0.65,0.21C21.2,7.11,21.22,7.11,21.23,7.11z M13.94,21.94c0.42-0.6,0.79-1.38,1.09-2.3l1.86-0.03c0.18,0,0.34-0.1,0.43-0.26c0.02-0.04,0.59-1.09,0.89-1.78c0.19-0.44,0.33-0.98,0.42-1.34h1.18C18.72,19.07,16.56,21.22,13.94,21.94z M15.69,3.51c0,0.01,0.48,0.76,0.75,1.31C16.53,5,16.62,5.2,16.7,5.39l-1.4-0.11c-0.34-1.32-0.8-2.44-1.36-3.23c0.66,0.18,1.29,0.45,1.88,0.8c-0.05,0.04-0.1,0.07-0.13,0.12C15.59,3.14,15.59,3.35,15.69,3.51z M18.61,12.64c0,0,0.01,0,0.02,0c0.13,0,0.25-0.05,0.35-0.14c0.1-0.09,0.15-0.22,0.15-0.36V10.4c0-0.31-0.01-0.61-0.03-0.85l1.29,0.21c0.14,0.72,0.21,1.47,0.21,2.24c0,1.13-0.16,2.21-0.45,3.23h-1.91c-0.24,0-0.44,0.17-0.49,0.4c0,0.01-0.19,0.93-0.45,1.54c-0.19,0.45-0.53,1.09-0.71,1.44l-1.27,0.02c0.24-0.94,0.42-1.97,0.55-3.04c0-0.02,0.01-0.04,0.01-0.07c0-0.01,0-0.01,0-0.02c0.11-0.96,0.18-1.96,0.19-2.95L18.61,12.64z M9.5,6.26l2.46,0h0c0.27,0,0.49-0.21,0.5-0.48l0.08-2.13h1.17c0.27,0.62,0.52,1.37,0.73,2.25c0,0.01,0,0.02,0.01,0.03c0.17,0.7,0.31,1.48,0.41,2.33h-3c-0.28,0-0.5,0.22-0.5,0.5v2.79H8.93C8.96,9.64,9.15,7.81,9.5,6.26z M8.93,12.55h2.93c0.28,0,0.5-0.22,0.5-0.5V9.26h2.6c0.08,0.86,0.12,1.78,0.12,2.74c0,1.07-0.05,2.09-0.15,3.03h-2.88c-0.28,0-0.5,0.22-0.5,0.5v3.28l-1.79,0.01C9.29,17.19,8.97,15.04,8.93,12.55z M12.05,19.81c0.27,0,0.5-0.22,0.5-0.5v-3.27h2.27c-0.15,1.1-0.36,2.08-0.61,2.92c-0.01,0.01-0.01,0.03-0.01,0.04c-0.6,2.01-1.42,3.2-2.19,3.2c-0.66,0-1.36-0.87-1.92-2.37L12.05,19.81z M9.63,2.77l-1.64,0.2c0.65-0.41,1.34-0.71,2.07-0.92C9.92,2.26,9.77,2.5,9.63,2.77z M10.41,3.43c0.5-1.03,1.08-1.62,1.59-1.62c0.38,0,0.78,0.3,1.15,0.84h-1.11c-0.27,0-0.49,0.21-0.5,0.48l-0.08,2.13l-1.73,0C9.94,4.57,10.16,3.95,10.41,3.43z M7.92,12c0,1.08,0.06,2.16,0.17,3.22l-2.35,0.11c-0.16,0.01-0.31,0.09-0.4,0.23s-0.1,0.31-0.04,0.46l1.17,2.8l-0.85,0.01c-1.15-1.52-1.92-3.44-2.14-5.57l1.88-0.32c0.23-0.04,0.41-0.24,0.42-0.48c0.03-1.03,0.11-2.26,0.19-2.72c0.37-0.08,1.21-0.17,2.06-0.24C7.96,10.3,7.92,11.14,7.92,12z M7.67,19.11L6.5,16.29l1.72-0.08c0.17,1.19,0.41,2.3,0.72,3.29c0,0.01,0,0.02,0.01,0.03c0.31,0.97,0.68,1.79,1.12,2.42c-1.34-0.37-2.57-1.11-3.59-2.13l0.74-0.01c0.17,0,0.32-0.09,0.41-0.22C7.72,19.44,7.74,19.27,7.67,19.11z M20.13,8.71l-1.52-0.25c-0.16-0.03-0.32,0.02-0.43,0.14s-0.17,0.27-0.15,0.43c0,0.01,0.09,0.65,0.09,1.38v1.23l-2.06-0.07c-0.03-1.81-0.21-3.63-0.54-5.26l1.9,0.14c0.01,0,0.03,0,0.04,0c0.16,0,0.3-0.07,0.4-0.2c0.1-0.14,0.13-0.32,0.07-0.48c-0.01-0.03-0.3-0.81-0.6-1.4c-0.09-0.18-0.19-0.37-0.29-0.55l0.1,0.01C18.51,5.06,19.56,6.75,20.13,8.71z M6.57,4.09C6.5,4.2,6.44,4.31,6.38,4.43c-0.21,0.4-0.46,0.97-0.6,1.29L5.14,5.88C5.55,5.22,6.03,4.61,6.57,4.09z M4.48,7.06l1.78-0.43c0.16-0.04,0.29-0.15,0.35-0.3c0-0.01,0.37-0.91,0.65-1.43C7.44,4.56,7.66,4.21,7.79,4l1.36-0.16c-0.19,0.52-0.36,1.1-0.52,1.72c0,0.01,0,0.01,0,0.02c-0.22,0.89-0.39,1.86-0.51,2.9c-2.6,0.21-2.79,0.39-2.91,0.51C5.08,9.12,4.9,9.3,4.79,12.01l-1.38,0.23c0-0.08-0.01-0.16-0.01-0.24c0-0.76,0.07-1.49,0.21-2.2c0.02-0.05,0.03-0.1,0.03-0.16C3.83,8.73,4.11,7.86,4.48,7.06z M18.85,19.84l0.02,0c-0.03,0.03-0.06,0.06-0.09,0.08C18.8,19.9,18.82,19.87,18.85,19.84z M19.55,18.91c0.6-0.89,1.08-1.88,1.42-2.95 c0.02-0.04,0.04-0.09,0.04-0.14c0.29-0.93,0.48-1.91,0.54-2.93l0.71,0.05c0.01,0,0.02,0,0.04,0c0.04,0,0.07-0.01,0.11-0.02 c-0.2,2.3-1.16,4.38-2.61,6.01L19.55,18.91z M20.4,5.81l-0.5-0.16c-0.33-0.56-0.71-1.09-1.12-1.58C19.39,4.59,19.92,5.17,20.4,5.81z M5.22,4.07C4.64,4.75,4.15,5.51,3.73,6.34C3.7,6.38,3.68,6.42,3.66,6.47c-0.42,0.87-0.74,1.8-0.96,2.79L1.83,9.6 C2.35,7.41,3.56,5.49,5.22,4.07z"/>
</svg>
