<?xml version="1.0" encoding="UTF-8"?><!DOCTYPE svg PUBLIC "-//W3C//DTD SVG 1.1//EN" "http://www.w3.org/Graphics/SVG/1.1/DTD/svg11.dtd"><svg viewBox="0 0 24 24" fill="#44739e" xmlns="http://www.w3.org/2000/svg"><path d= "M18 2H6c-1.1 0-2 .9-2 2v16c0 1.1.9 2 2 2v-3a1.08 1.08 0 0 1 1-1h10a1.08 1.08 0 0 1 1 1v3c1.1 0 2-.9 2-2V4c0-1.1-.9-2-2-2zM7 6a.94.94 0 0 1-1-1 .94.94 0 0 1 1-1 .94.94 0 0 1 1 1 .94.94 0 0 1-1 1zm10 0a.94.94 0 0 1-1-1 .94.94 0 0 1 1-1 .94.94 0 0 1 1 1 .94.94 0 0 1-1 1zm-4.4 16h-1.1v-3h1.1v3zm2.2 0h-1.1v-3h1.1v3zm2.2 0h-1.1v-3H17v3zm-8.9 0H7v-3h1.1v3zm2.2 0H9.2v-3h1.1v3z"/></svg>

