<?xml version="1.0" encoding="UTF-8" standalone="no"?>
<!DOCTYPE svg PUBLIC "-//W3C//DTD SVG 1.1//EN" "http://www.w3.org/Graphics/SVG/1.1/DTD/svg11.dtd">
<svg width="100%" height="100%" viewBox="0 0 24 24" version="1.1" xmlns="http://www.w3.org/2000/svg" xmlns:xlink="http://www.w3.org/1999/xlink" xml:space="preserve" xmlns:serif="http://www.serif.com/" style="fill-rule:evenodd;clip-rule:evenodd;stroke-linejoin:round;stroke-miterlimit:2;">
    <g transform="matrix(1,0,0,1,0,2.525)">
        <g transform="matrix(0.45,0,0,0.45,12.1039,3.85)">
            <path d="M12,7C6.5,7 2,9.46 2,12.5C2,15.54 6.5,18 12,18C17.5,18 22,15.54 22,12.5C22,9.46 17.5,7 12,7M16.5,10C16.5,10.4 14.9,11.54 12,11.54C9.1,11.54 7.5,10.4 7.5,10C7.5,9.91 7.65,9.74 7.9,9.55C9.06,9.21 10.44,9 12,9C13.56,9 14.94,9.21 16.1,9.55C16.35,9.74 16.5,9.91 16.5,10M12,16C7.12,16 4,13.93 4,12.5C4,11.81 4.73,11 6.03,10.29C6.3,11.83 8.87,13.04 12,13.04C15.13,13.04 17.7,11.83 17.97,10.29C19.27,11 20,11.81 20,12.5C20,13.93 16.88,16 12,16Z" style="fill-rule:nonzero;"/>
        </g>
        <g transform="matrix(0.45,0,0,0.45,1.1,3.85)">
            <path d="M12,7C6.5,7 2,9.46 2,12.5C2,15.54 6.5,18 12,18C17.5,18 22,15.54 22,12.5C22,9.46 17.5,7 12,7M16.5,10C16.5,10.4 14.9,11.54 12,11.54C9.1,11.54 7.5,10.4 7.5,10C7.5,9.91 7.65,9.74 7.9,9.55C9.06,9.21 10.44,9 12,9C13.56,9 14.94,9.21 16.1,9.55C16.35,9.74 16.5,9.91 16.5,10M12,16C7.12,16 4,13.93 4,12.5C4,11.81 4.73,11 6.03,10.29C6.3,11.83 8.87,13.04 12,13.04C15.13,13.04 17.7,11.83 17.97,10.29C19.27,11 20,11.81 20,12.5C20,13.93 16.88,16 12,16Z" style="fill-rule:nonzero;"/>
        </g>
    </g>
</svg>
