<svg viewBox="0 0 24 24" fill="#44739e" xmlns="http://www.w3.org/2000/svg"><title>hue:lutron-pico-b4</title><desc>Source: https://github.com/arallsopp/hass-hue-icons</desc><path d="M16.51,0.55H7.82c-0.83,0-1.5,0.67-1.5,1.5v20.03c0,0.83,0.67,1.5,1.5,1.5h8.68c0.83,0,1.5-0.67,1.5-1.5V2.05  C18.01,1.23,17.33,0.55,16.51,0.55z M17.01,22.08c0,0.28-0.22,0.5-0.5,0.5H7.82c-0.28,0-0.5-0.22-0.5-0.5V2.05  c0-0.28,0.22-0.5,0.5-0.5h8.68c0.28,0,0.5,0.22,0.5,0.5V22.08z M15.63,2.39H8.7c-0.28,0-0.5,0.22-0.5,0.5v3.74c0,0.28,0.22,0.5,0.5,0.5h6.93c0.28,0,0.5-0.22,0.5-0.5V2.89  C16.13,2.61,15.91,2.39,15.63,2.39z M15.13,3.39v2.74H9.2V3.39 M15.63,17.06H8.7c-0.28,0-0.5,0.22-0.5,0.5v3.74c0,0.28,0.22,0.5,0.5,0.5h6.93c0.28,0,0.5-0.22,0.5-0.5v-3.74  C16.13,17.28,15.91,17.06,15.63,17.06z M15.13,18.06v2.74H9.2v-2.74 M15.63,7.94H8.7c-0.28,0-0.5,0.22-0.5,0.5v7.31c0,0.28,0.22,0.5,0.5,0.5h6.93c0.28,0,0.5-0.22,0.5-0.5V8.44  C16.13,8.16,15.91,7.94,15.63,7.94z M14.5,8.94l-1.4,1.48c-0.28-0.15-0.6-0.24-0.94-0.24c-1.12,0-2.04,0.91-2.04,2.04  c0,0.36,0.1,0.7,0.27,1l-1.2,1.28V8.94 M11.13,12.21c0-0.57,0.47-1.04,1.04-1.04s1.04,0.47,1.04,1.04s-0.46,1.04-1.04,1.04  S11.13,12.78,11.13,12.21z"/></svg>