<?xml version="1.0" encoding="utf-8"?>
<!-- Generator: Adobe Illustrator 26.3.1, SVG Export Plug-In . SVG Version: 6.00 Build 0)  -->
<svg version="1.1" id="Layer_1" xmlns="http://www.w3.org/2000/svg" xmlns:xlink="http://www.w3.org/1999/xlink" x="0px" y="0px"
	 viewBox="0 0 24 24" style="enable-background:new 0 0 24 24;" xml:space="preserve">
<style type="text/css">
	.st0{fill-rule:evenodd;clip-rule:evenodd;fill:#44739E;}
</style>
<path class="st0" d="M16.2,4.8c0-2.3-1.9-4.2-4.2-4.2S7.8,2.5,7.8,4.8c0,1.4,0.6,2.6,1.6,3.3H9.2c0.6,0.5,1.3,0.8,2.1,1v5.1
	c-1.2,0.3-2,1.4-2,2.6s0.9,2.3,2,2.6v3.9h1.4v-3.9c1.2-0.3,2-1.4,2-2.6s-0.9-2.3-2-2.6V9.2c0.8-0.1,1.5-0.5,2.1-1h-0.2
	C15.6,7.4,16.2,6.2,16.2,4.8z M13.7,16.9c0,0.9-0.8,1.7-1.7,1.7s-1.7-0.8-1.7-1.7s0.8-1.7,1.7-1.7S13.7,16,13.7,16.9z M8.9,4.8
	c0-1.7,1.4-3.1,3.1-3.1s3.1,1.4,3.1,3.1S13.7,7.9,12,7.9S8.9,6.5,8.9,4.8z"/>
</svg>
