<?xml version="1.0" encoding="UTF-8"?><!DOCTYPE svg PUBLIC "-//W3C//DTD SVG 1.1//EN" "http://www.w3.org/Graphics/SVG/1.1/DTD/svg11.dtd"><svg viewBox="0 0 24 24" fill="#44739e" xmlns="http://www.w3.org/2000/svg"><path d= "M13.5 13.6c-1.4.8-3.3.3-4.1-1.1s-.3-3.3 1.1-4.1 3.3-.3 4.1 1.1.3 3.3-1.1 4.1zm7.3-8.7c-.6-.6-1.9-2-3.9-1.8-1.5.1-2.6 1.2-2.9 1.5-.3.4-.7 1-1 1.6 2.3.4 4 2.4 4 4.8 0 .4-.1.8-.2 1.2.4 0 .6.1.8.1.1 0 .7.1 1.4.3s.7.3 1.2.3c.4.1.8.1 1.1 0 0 0 .5-.2 1-.8.8-1 .9-4.8-1.5-7.2zm-5.1 9.5c-.9 1-2.2 1.6-3.7 1.6-1.3 0-2.6-.5-3.5-1.4-.2.3-.3.5-.5.6-.1.1-.4.5-1 1.1-.5.5-.6.5-.9.8s-.5.6-.6 1c0 0-.1.5.2 1.2.5 1.3 3.7 3.2 7.1 2.4.8-.2 2.7-.7 3.5-2.4.7-1.4.3-2.8.1-3.2-.1-.6-.4-1.1-.7-1.7zM7 11a4.95 4.95 0 0 1 3.6-4.8c-.2-.4-.2-.5-.3-.7 0-.1-.2-.6-.4-1.4l-.3-1.2c-.2-.4-.3-.7-.6-1 0 0-.4-.4-1.1-.5-1.4-.1-4.7 1.7-5.6 5-.2.8-.8 2.7.3 4.3.9 1.3 2.3 1.6 2.7 1.7.5.1 1.2.1 1.9.1-.1-.5-.2-1-.2-1.5z"/></svg>

