<?xml version="1.0" encoding="UTF-8"?><!DOCTYPE svg PUBLIC "-//W3C//DTD SVG 1.1//EN" "http://www.w3.org/Graphics/SVG/1.1/DTD/svg11.dtd"><svg viewBox="0 0 24 24" fill="#44739e" xmlns="http://www.w3.org/2000/svg"><path d= "M17 12h5a10.09 10.09 0 0 1-1.3 5c-.9 1.6-2.2 2.8-3.7 3.7l-2.5-4.3c.7-.4 1.4-1 1.8-1.8.5-.9.7-1.7.7-2.6zM7 3.3l2.5 4.3c1.5-.9 3.4-.9 5 0L17 3.3a10.18 10.18 0 0 0-10 0zM7 12H2c0 3.5 1.8 6.8 5 8.7l2.5-4.3C7.9 15.4 7 13.7 7 12zm7.6 1.5c.8-1.4.3-3.3-1.1-4.1s-3.3-.3-4.1 1.1-.3 3.3 1.1 4.1 3.3.3 4.1-1.1z"/></svg>

