<?xml version="1.0" encoding="UTF-8"?><!DOCTYPE svg PUBLIC "-//W3C//DTD SVG 1.1//EN" "http://www.w3.org/Graphics/SVG/1.1/DTD/svg11.dtd"><svg viewBox="0 0 24 24" fill="#44739e" xmlns="http://www.w3.org/2000/svg"><path d= "M5.3 16H4v3.2c0 .3.1.5.3.7.2.1.5.1.7 0L7.4 18l2.3 1.9c.2.1.5.1.7 0L12 18l1.6 1.9c.1.1.3.1.4.1s.2 0 .3-.1l2.3-1.9 2.4 1.9c.2.1.5.1.7 0s.3-.4.3-.7V16H5.3zM21 14H3c-.5 0-1-.4-1-1v-2c0-.6.5-1 1-1h18c.5 0 1 .4 1 1v2c0 .6-.5 1-1 1zm-2.3-6H20V4.8c0-.3-.1-.5-.3-.7-.2-.1-.5-.1-.7 0L16.6 6l-2.3-1.9c-.2-.1-.5-.1-.7 0L12 6l-1.6-1.9c-.1-.1-.3-.1-.4-.1s-.2 0-.3.1L7.4 6 5 4.1c-.2-.1-.5-.1-.7 0-.2.2-.3.4-.3.7V8h14.7z"/></svg>