<?xml version="1.0" encoding="UTF-8"?><!DOCTYPE svg PUBLIC "-//W3C//DTD SVG 1.1//EN" "http://www.w3.org/Graphics/SVG/1.1/DTD/svg11.dtd"><svg viewBox="0 0 24 24" fill="#44739e" xmlns="http://www.w3.org/2000/svg"><path d= "M12 4c4.4 0 8 3.6 8 8s-3.6 8-8 8-8-3.6-8-8 3.6-8 8-8m0-2C6.5 2 2 6.5 2 12s4.5 10 10 10 10-4.5 10-10S17.5 2 12 2h0zm-4.4 8c0-.3 0-.6.1-.9H4v1.8h3.6V10zm8.8-.9c.1.3.1.6.1.9s0 .6-.1.9H20V9.1h-3.6zM12 6.4c-1.2 0-2.3.6-2.9 1.6H15c-.7-.9-1.8-1.6-3-1.6zm0-1c1.8 0 3.3 1 4.1 2.6h1.7c-1.3-1.8-3.4-3-5.7-3S7.5 6.2 6.3 8H8c.7-1.5 2.2-2.6 4-2.6zm0 8.2c2 0 3.6-1.6 3.6-3.6S14 6.4 12 6.4 8.4 8 8.4 10s1.6 3.6 3.6 3.6zm0 0c1.2 0 2.3-.6 2.9-1.6H9.1c.6.9 1.7 1.6 2.9 1.6zm4.1-1.6a4.58 4.58 0 0 1-4.1 2.6c-1.8 0-3.3-1-4.1-2.6H5c0 3.9 3.1 7 7 7s7-3.1 7-7h-2.9z"/></svg>

