<?xml version="1.0" encoding="UTF-8"?><!DOCTYPE svg PUBLIC "-//W3C//DTD SVG 1.1//EN" "http://www.w3.org/Graphics/SVG/1.1/DTD/svg11.dtd"><svg viewBox="0 0 24 24" fill="#44739e" xmlns="http://www.w3.org/2000/svg"><path d= "M18 0H6C4.9 0 4 .9 4 2v20c0 1.1.9 2 2 2h12c1.1 0 2-.9 2-2V2c0-1.1-.9-2-2-2zm-6 2.5A1.54 1.54 0 0 1 13.5 4 1.54 1.54 0 0 1 12 5.5 1.54 1.54 0 0 1 10.5 4 1.54 1.54 0 0 1 12 2.5zM16 22H8v-2h8v2zm-4-3a6.02 6.02 0 0 1-6-6 6.02 6.02 0 0 1 6-6 6.02 6.02 0 0 1 6 6 6.02 6.02 0 0 1-6 6zm0-10c-2.2 0-4 1.8-4 4s1.8 4 4 4 4-1.8 4-4-1.8-4-4-4zm0 6c-1.1 0-2-.9-2-2s.9-2 2-2 2 .9 2 2-.9 2-2 2z"/></svg>

