<?xml version="1.0" encoding="utf-8"?>
<!-- Generator: Adobe Illustrator 25.4.1, SVG Export Plug-In . SVG Version: 6.00 Build 0)  -->
<svg version="1.1" id="Layer_1" xmlns="http://www.w3.org/2000/svg" xmlns:xlink="http://www.w3.org/1999/xlink" x="0px" y="0px"
	 viewBox="0 0 24 24" style="enable-background:new 0 0 24 24;" xml:space="preserve" fill="#44739e">
<path d="M5.6,9L4.9,4.9L9,5.7C8.3,6,7.6,6.5,7,7.1C6.4,7.6,6,8.3,5.6,9z M5.2,13.8C5,13,5,12.2,5,11.4l-2.7,3.2L6.3,16
	C5.8,15.4,5.4,14.6,5.2,13.8z M16,6.3l-1.4-3.9L11.4,5C12.2,5,13,5,13.8,5.2C14.6,5.5,15.3,5.8,16,6.3z M22,19v2H3l5.4-5.5
	c-1.9-2-1.9-5.1,0-7.1c1.9-1.9,5.1-1.9,7,0l3-3l1.4,1.4l-7.8,7.8c1.2,0.9,1.9,2.3,1.9,3.9c0,0.2,0,0.3,0,0.5H22z M9.8,14.1l4.2-4.3
	c-1.2-1.1-3-1.1-4.2,0C8.7,11,8.7,12.9,9.8,14.1z M12,18.5c0-1.1-0.5-2-1.3-2.5L7.7,19H12C12,18.8,12,18.7,12,18.5z"/>
</svg>
