<?xml version="1.0" encoding="utf-8"?>
<!-- Generator: Adobe Illustrator 25.4.1, SVG Export Plug-In . SVG Version: 6.00 Build 0)  -->
<svg version="1.1" id="Layer_1" xmlns="http://www.w3.org/2000/svg" xmlns:xlink="http://www.w3.org/1999/xlink" x="0px" y="0px"
	 viewBox="0 0 24 24" style="enable-background:new 0 0 24 24;" xml:space="preserve" fill="#44739e">
<path d="M13.8,5.2C13,5,12.2,5,11.4,5l3.2-2.7L16,6.3C15.3,5.8,14.6,5.5,13.8,5.2z M7,7.1C7.6,6.5,8.3,6,9,5.7L4.9,4.9L5.6,9
	C6,8.3,6.4,7.6,7,7.1z M5.2,13.8C5,13,5,12.2,5,11.4l-2.7,3.2L6.3,16C5.8,15.4,5.4,14.6,5.2,13.8z M22,19v2H3l5.4-5.5
	c-1.9-2-1.9-5.1,0-7.1c1.9-1.9,5.1-1.9,7,0l3-3l1.4,1.4L7.7,19H22z M9.8,14.1l4.2-4.3c-1.2-1.1-3-1.1-4.2,0
	C8.7,11,8.7,12.9,9.8,14.1z"/>
</svg>
