<?xml version="1.0" encoding="utf-8"?>
<!-- Generator: Adobe Illustrator 26.3.1, SVG Export Plug-In . SVG Version: 6.00 Build 0)  -->
<svg version="1.1" xmlns="http://www.w3.org/2000/svg" x="0px" y="0px"
     viewBox="0 0 24 24" style="enable-background:new 0 0 24 24;" xml:space="preserve">
<style type="text/css">
	.st0{fill:#44739E;}
</style>
    <path class="st0" d="M23.6,15.8l-1.8-7.5h1v0.7h0.1c0.4,0,0.7-0.3,0.7-0.7v-2H0.4v2c0,0.4,0.3,0.7,0.7,0.7h0.1V8.2h1l-1.8,7.5H0.1 v1.4c0,0.3,0.2,0.6,0.4,0.6h23c0.2,0,0.4-0.3,0.4-0.6v-1.4H23.6z M1.2,7.8V7.3h7.3h8.4h5.9v0.5h-1.1l-0.1-0.2H2.4L2.3,7.8H1.2z M1.2,15.8l1.5-7.5h0.7L2,15.8H1.2z M3.4,15.8l1.1-7.5h1.2l-1.3,7.5H3.4z M5.8,15.8l1-7.5H8l-1,7.5H5.8z M8.4,15.8l0.6-7.5h1.2 l-0.6,7.5H8.4z M11.2,15.8l0.2-7.5h1.3l0.2,7.5H11.2z M14.4,15.8l-0.6-7.5H15l0.6,7.5H14.4z M17,15.8l-1-7.5h1.2l1,7.5H17z  M19.6,15.8l-1.3-7.5h1.2l1.1,7.5H19.6z M22.1,15.8l-1.4-7.5h0.6l1.5,7.5H22.1z"/>
</svg>
