<svg viewBox="0 0 24 24" height="24px" width="24px" fill="#44739e" xmlns="http://www.w3.org/2000/svg"><title>custom:table-cylinder-lamp</title><desc>Source: https://github.com/arallsopp/hass-hue-icons</desc><path d="M16.1,2.95c-0.43-2.35-8.14-2.35-8.56,0c-0.03,0.06-0.04,0.13-0.04,0.2v18c0,0.07,0.02,0.14,0.04,0.2 c0.22,1.18,2.25,1.8,4.28,1.8c2.03,0,4.07-0.62,4.28-1.8c0.03-0.06,0.04-0.13,0.04-0.2v-18C16.14,3.07,16.13,3.01,16.1,2.95z M8.49,19.85L8.49,19.85c0.01-0.01,0.01,0,0.02,0H8.49z M15.14,19.85h-0.02C15.13,19.84,15.14,19.84,15.14,19.85L15.14,19.85z M15.14,18.53c0,0.3-1.13,1-3.32,1c-2.16,0-3.32-0.71-3.32-1V4.45c0.83,0.45,2.08,0.69,3.32,0.69c1.25,0,2.49-0.24,3.32-0.69V18.53 z M11.82,4.14c-2.19,0-3.32-0.7-3.32-1c0-0.29,1.17-1,3.32-1c2.19,0,3.32,0.7,3.32,1S14.01,4.14,11.82,4.14z"/></svg>
