<?xml version="1.0" encoding="utf-8"?>
<!-- Generator: Adobe Illustrator 24.0.3, SVG Export Plug-In . SVG Version: 6.00 Build 0)  -->
<svg version="1.1" id="Layer_1" xmlns="http://www.w3.org/2000/svg" xmlns:xlink="http://www.w3.org/1999/xlink" x="0px" y="0px"
	 viewBox="0 0 24 24" style="enable-background:new 0 0 24 24;" xml:space="preserve" fill="#44739e">
<path d="M15,13.021V5c0-1.657-1.343-3-3-3S9,3.343,9,5v8.021C7.792,13.934,7,15.369,7,17c0,2.761,2.239,5,5,5s5-2.239,5-5
	C17,15.369,16.208,13.934,15,13.021z M12,20c-1.654,0-3-1.346-3-3c0-1.302,0.839-2.401,2-2.816V5c0-0.551,0.449-1,1-1s1,0.449,1,1
	v9.184c1.161,0.414,2,1.514,2,2.816C15,18.654,13.654,20,12,20z"/>
</svg>
