<?xml version="1.0" encoding="utf-8"?>
<!-- Generator: Adobe Illustrator 26.3.1, SVG Export Plug-In . SVG Version: 6.00 Build 0)  -->
<svg version="1.1" id="Layer_1" xmlns="http://www.w3.org/2000/svg" x="0px" y="0px"
	 viewBox="0 0 24 24" style="enable-background:new 0 0 24 24;" xml:space="preserve">
<style type="text/css">
	.st0{fill-rule:evenodd;clip-rule:evenodd;fill:#44739E;}
</style>
	<path class="st0" d="M16.6,2.2C16.6,2.1,16.6,2.1,16.6,2.2C16.4,2,16.2,2,16.1,1.9c-0.1,0-0.2-0.1-0.3-0.1c-0.1,0-0.3-0.1-0.5-0.1 c-0.1,0-0.3-0.1-0.4-0.1c-0.1,0-0.3-0.1-0.4-0.1c-0.2,0-0.4-0.1-0.5-0.1c-0.1,0-0.2,0-0.3,0c-0.3,0-0.6,0-0.9,0 c-5.3,0-9.5,4.3-9.5,9.5c0,0.4,0,0.7,0.1,1.1c0,0.1,0,0.1,0,0.2c0,0.3,0.1,0.6,0.2,0.8c0,0.1,0,0.1,0,0.2c0.1,0.3,0.2,0.6,0.3,0.9 c0,0,0,0,0,0.1C3.9,14.4,4,14.7,4.2,15c0,0,0,0,0,0h0c0.6,1.3,1.6,2.4,2.7,3.3v3.2h11.7v-3.2c2.2-1.7,3.7-4.5,3.7-7.5 C22.3,7,19.9,3.6,16.6,2.2z M17.4,20.5H8V19h9.4V20.5z M15.4,18H10c-1.4-0.5-2.6-1.5-3.5-2.7c0.1,0,0.3,0,0.4,0 c5.8,0,10.5-4.2,11.5-9.7c1.2,1.4,2,3.2,2,5.2C20.4,14.1,18.3,16.9,15.4,18z"/>
</svg>
