<?xml version="1.0" encoding="utf-8"?>
<!DOCTYPE svg PUBLIC "-//W3C//DTD SVG 1.0//EN" "http://www.w3.org/TR/2001/REC-SVG-20010904/DTD/svg10.dtd">
<svg version="1.0" xmlns="http://www.w3.org/2000/svg" width="25px" height="25px" viewBox="0 0 25 25" preserveAspectRatio="xMidYMid meet">
 <g fill="#44bfff">
  <path d="M4.24 21.25 c-0.18 -0.08 -0.35 -0.20 -0.39 -0.27 -0.05 -0.07 -0.11 -1.67 -0.14 -3.55 -0.06 -4.11 0.03 -3.85 -1.24 -3.85 -0.96 0 -1.20 -0.15 -1.20 -0.74 0 -0.33 0.24 -0.60 4.89 -5.20 2.70 -2.67 4.99 -4.89 5.11 -4.93 0.52 -0.21 0.71 -0.06 3.62 2.86 l2.83 2.83 -1.30 1.29 -1.29 1.30 -1.53 -1.53 c-0.85 -0.84 -1.64 -1.57 -1.76 -1.63 -0.13 -0.06 -0.32 -0.09 -0.45 -0.06 -0.13 0.04 -1.27 1.10 -2.54 2.38 l-2.31 2.31 0 2.64 c0 2.23 0.02 2.67 0.16 2.85 0.15 0.21 0.21 0.21 1.71 0.21 l1.55 0 0.10 -0.25 c0.06 -0.14 0.10 -0.90 0.10 -1.70 0 -1.39 0.01 -1.46 0.21 -1.60 0.25 -0.19 1.89 -0.23 1.79 -0.06 -0.04 0.06 -0.10 0.08 -0.14 0.06 -0.03 -0.03 -0.07 0.03 -0.08 0.12 0 0.09 -0.29 0.98 -0.65 1.95 -0.35 0.99 -0.64 1.92 -0.64 2.07 0 0.42 0.51 0.88 0.96 0.88 0.49 0 4.17 -1.31 4.61 -1.63 0.19 -0.15 0.88 -0.79 1.54 -1.44 l1.19 -1.17 0 2.67 c0 1.72 -0.04 2.72 -0.11 2.86 -0.25 0.47 -0.30 0.47 -7.53 0.47 -5.49 -0.01 -6.83 -0.03 -7.07 -0.14z"/>
  <path d="M11.47 18.75 c-0.06 -0.10 1.01 -3.30 1.26 -3.78 0.08 -0.16 1.49 -1.62 3.15 -3.28 l3.01 -3 1.35 1.35 1.34 1.34 -3.06 3.05 c-1.67 1.67 -3.14 3.09 -3.26 3.14 -0.32 0.17 -3.48 1.28 -3.61 1.28 -0.06 0 -0.15 -0.04 -0.18 -0.10z m2.39 -1.37 c0.69 -0.20 0.69 -0.23 0 -0.93 -0.34 -0.35 -0.67 -0.63 -0.71 -0.61 -0.10 0.03 -0.46 0.92 -0.46 1.12 0 0.20 0.37 0.51 0.62 0.51 0.12 0 0.37 -0.05 0.56 -0.10z"/>
  <path d="M20.87 9.39 l-1.35 -1.35 0.66 -0.64 c0.41 -0.39 0.79 -0.66 0.98 -0.70 0.37 -0.09 1.05 0.17 0.95 0.34 -0.04 0.07 -0.03 0.09 0.03 0.06 0.05 -0.03 0.37 0.22 0.71 0.57 0.59 0.59 0.63 0.65 0.66 1.16 l0.04 0.55 -0.66 0.68 -0.67 0.69 -1.35 -1.36z"/>
  <path d="M17.41 7.01 c-0.05 -0.07 -0.15 -0.26 -0.21 -0.44 -0.16 -0.38 -0.43 -0.64 -0.94 -0.88 -0.48 -0.22 -0.53 -0.51 -0.10 -0.64 0.50 -0.17 0.83 -0.46 1.05 -0.94 0.29 -0.61 0.51 -0.63 0.74 -0.09 0.21 0.50 0.52 0.79 1.02 1.01 0.47 0.20 0.47 0.52 0.02 0.66 -0.49 0.16 -0.83 0.46 -1.05 0.93 -0.23 0.48 -0.37 0.59 -0.53 0.39z"/>
 </g>
</svg>